<svg width="165" height="52" viewBox="0 0 165 52" fill="none" xmlns="http://www.w3.org/2000/svg">
<path d="M0.451208 29.603L0.300138 29.4149C0.187711 29.2804 -0.0195872 29.258 0.00149274 28.9668C0.0121 28.8443 0.0479209 28.7276 0.105301 28.6284C0.162682 28.5293 0.239601 28.4512 0.32825 28.4022C0.46175 28.3455 0.587422 28.2623 0.700661 28.1557C0.796225 28.0491 0.907772 27.9683 1.02856 27.9183C1.14934 27.8682 1.27684 27.8499 1.40332 27.8645C2.19016 27.86 2.97611 27.7972 3.75723 27.6764C4.10856 27.6316 4.29477 27.2865 4.10856 26.9504C3.9206 26.651 3.76467 26.321 3.64482 25.9692C3.60969 25.7944 3.45157 25.7228 3.31807 25.6421C3.18456 25.5615 2.91403 25.5748 2.96673 25.3373C3.01943 25.0999 3.04403 24.7101 3.31807 24.6205C3.56472 24.5074 3.79591 24.3456 4.00317 24.141C4.24559 24.0648 4.48449 23.9797 4.72691 23.926C4.96933 23.8722 5.07826 23.7109 4.96232 23.4017C4.92719 23.3076 4.86043 23.1821 4.89556 23.1194C5.16609 22.6713 4.89555 22.4339 4.68124 22.1426C4.58846 21.9794 4.5271 21.7906 4.50207 21.5915C4.49021 21.4831 4.4555 21.3809 4.40168 21.2957C4.34785 21.2105 4.2769 21.1454 4.1964 21.1075C3.98208 21 3.92237 20.8388 4.01372 20.5162C4.19641 19.8709 4.17533 19.862 3.70454 19.499C3.65031 19.4483 3.60707 19.3808 3.57888 19.3029C3.5507 19.225 3.5385 19.1392 3.54342 19.0537C3.54833 18.9681 3.57021 18.8856 3.607 18.8138C3.64378 18.742 3.69428 18.6833 3.75374 18.6431C4.2456 18.3519 4.71287 17.9576 5.28905 17.9755C5.47273 17.9686 5.65646 17.9866 5.83713 18.0293C6.20904 18.1345 6.59369 18.1436 6.96841 18.0561C7.16086 18.011 7.35875 18.0202 7.54812 18.083C8.56698 18.455 9.6034 18.7373 10.6363 19.033C10.9244 19.1182 11.1001 19.033 11.1106 18.6119C11.1247 18.282 11.1247 17.9514 11.1106 17.6215C11.0962 17.5761 11.0747 17.5349 11.0474 17.5005C10.9162 17.1464 10.7611 16.8076 10.5836 16.4879C10.552 16.3938 10.4782 16.4072 10.4185 16.3803C10.0672 15.7844 9.80366 15.0362 9.3645 14.6284C9.02132 14.3548 8.74412 13.9656 8.56347 13.5037C8.47915 13.2797 8.1278 13.2439 7.97673 12.9751C7.82566 12.7062 7.88889 12.5763 8.08213 12.4508C8.17347 12.3881 8.28591 12.3119 8.13835 12.164C7.87134 11.931 7.69919 11.5054 7.3057 11.5054C7.21084 11.5054 7.10895 11.3396 7.08436 11.1872C7.0176 10.7392 6.75409 10.6944 6.48005 10.6496C6.40276 10.6496 6.32196 10.793 6.24467 10.6496C6.04283 10.2771 5.81595 9.92778 5.5666 9.60553C5.37571 9.34327 5.13301 9.15135 4.86394 9.04992C4.7761 9.02303 4.68124 8.94685 4.68475 8.81243C4.68475 8.39572 4.47397 8.19854 4.23858 8.00139C4.14939 7.94231 4.0768 7.84933 4.03085 7.73534C3.9849 7.62136 3.96786 7.49203 3.98209 7.36516C4.02074 7.10975 4.2491 7.09187 4.40017 7.06947C4.83934 6.99778 5.20473 6.85881 5.32418 6.21806C5.36634 5.9985 5.58417 5.95821 5.70362 5.80587C5.85149 5.64895 6.01588 5.5192 6.19198 5.42048C6.78248 5.18675 7.39417 5.05125 8.01188 5.01725C8.59707 5.04077 9.18153 4.94697 9.74394 4.73939C9.94771 4.66322 10.0215 4.56021 9.97933 4.33617C9.91609 3.99116 10.0847 3.88805 10.2815 3.83876C10.3454 3.82391 10.4099 3.81352 10.4747 3.80748C10.8893 3.7089 11.3776 3.76259 11.3917 2.93813C11.3917 2.69617 11.6517 2.6424 11.7817 2.49006C11.9282 2.32505 12.0957 2.19327 12.277 2.10029C12.8005 2.00171 13.331 1.8987 13.8545 1.80908C13.9861 1.81222 14.1158 1.77044 14.2304 1.68809C14.5818 1.60744 14.9331 1.54912 15.2844 1.49983C15.6503 1.47973 16.0132 1.4076 16.3665 1.28476C16.76 1.19963 17.1606 1.16381 17.554 1.08764C17.814 0.944252 18.0951 1.11453 18.3551 0.989073H18.6643C19.0156 0.832247 19.3669 0.989095 19.6972 0.89948C19.7205 0.904176 19.7441 0.904176 19.7674 0.89948C20.0069 0.819113 20.2566 0.800777 20.5017 0.845659C21.012 0.855412 21.5223 0.827012 22.03 0.760551C22.1261 0.73748 22.2241 0.729931 22.3216 0.738125C23.1051 0.738125 23.8886 0.778426 24.672 0.711215C24.6953 0.715567 24.719 0.715567 24.7423 0.711215C25.231 0.642588 25.7232 0.623164 26.2144 0.653018C26.4608 0.671022 26.7079 0.657473 26.9522 0.612651C26.983 0.583163 27.0193 0.564667 27.0576 0.55894C27.9605 0.55894 28.8634 0.51853 29.7699 0.473722C32.2292 0.343781 34.6674 0.236313 37.1162 0.209429C38.5707 0.209429 40.0287 0.178064 41.4832 0.209429H42.0278C42.1727 0.191501 42.3186 0.191501 42.4635 0.209429C45.1266 0.245275 47.7932 0.151113 50.4598 0.142152C51.0325 0.142152 51.6122 0.1422 52.1883 0.0794697C52.3385 0.0542132 52.4903 0.0466915 52.6415 0.0570442H57.5602C57.8132 0.0570442 58.0661 0.0570442 58.3191 0.0570442C58.4348 0.0850972 58.5527 0.0956558 58.6704 0.08844C61.4811 0.155651 64.3233 0.137671 67.1516 0.142152C67.278 0.142152 67.4151 0.0884356 67.5345 0.195973C67.6468 0.248735 67.7684 0.26117 67.8858 0.231854C68.9609 0.169124 70.029 0.406594 71.1005 0.334903C71.1537 0.330678 71.2061 0.351346 71.2481 0.3931C72.0948 0.487195 72.9415 0.393139 73.7882 0.433466C74.115 0.433466 74.4417 0.433466 74.7684 0.433466C74.844 0.426907 74.92 0.436012 74.9933 0.460376C76.2932 0.379723 77.5932 0.505188 78.8896 0.352843C79.6484 0.263228 80.4108 0.285531 81.1732 0.249685C82.9299 0.173513 84.6654 0.0884793 86.4116 0.128806C87.1142 0.128806 87.8169 0.0884443 88.5406 0.0929251C90.0373 0.0929251 91.5375 0.0435888 93.0307 0.155607C94.436 0.258664 95.8413 0.24976 97.2467 0.213914C99.9238 0.151183 102.601 0.0481439 105.282 0.00781728C107.186 -0.0235479 109.09 0.0526247 110.994 0.00781728C111.046 0.00616856 111.098 0.0136202 111.149 0.0301335C111.567 0.0570179 111.985 0.110866 112.407 0.110866C115.052 0.110866 117.698 0.110866 120.34 0.110866C121.341 0.110866 122.339 0.0167131 123.337 0.052559C125.153 0.11977 126.969 0.0526247 128.782 0.119836C129.917 0.160162 131.055 0.231841 132.19 0.330417C132.646 0.321594 133.101 0.366616 133.55 0.464861C134.414 0.599284 135.275 0.756057 136.143 0.859114C136.596 0.912883 137.024 1.10107 137.471 1.1862C137.576 1.1862 137.597 1.34304 137.657 1.42369C137.727 1.54587 137.821 1.64241 137.929 1.70374C138.038 1.76507 138.157 1.78906 138.275 1.7732C138.381 1.83145 138.458 1.91655 138.384 2.07338C138.354 2.11607 138.335 2.17003 138.331 2.22729C138.326 2.28456 138.336 2.34209 138.36 2.39149C138.497 2.61989 138.682 2.79398 138.894 2.89339C139.125 3.45796 139.695 3.63269 139.916 4.10317C140.383 5.08893 141.23 5.03063 141.869 5.51455C142.006 5.61761 141.975 5.71627 141.989 5.82381C141.991 5.95059 142.031 6.07137 142.102 6.16019C142.173 6.24902 142.269 6.29871 142.368 6.29868C143.278 6.45004 144.195 6.51901 145.112 6.50489C145.27 6.51007 145.427 6.48585 145.579 6.43313C145.828 6.28291 146.11 6.24543 146.377 6.32691C146.645 6.40838 146.883 6.60393 147.051 6.8812C147.076 6.92153 147.097 6.98874 147.122 6.99322C147.473 6.99322 147.571 7.32034 147.603 7.69224C147.758 7.8718 147.938 8.01306 148.134 8.10892C148.246 8.27023 148.422 8.35537 148.351 8.67798C148.306 8.87962 148.52 8.94242 148.654 8.97378C148.819 8.98494 148.977 9.06442 149.104 9.20022C149.23 9.33603 149.319 9.52075 149.356 9.72651C149.43 10.0805 149.743 10.0715 149.961 10.1746L150.343 10.4927C150.52 10.5363 150.698 10.5662 150.877 10.5823C151.317 10.6943 151.345 10.7436 151.194 11.3754C151.13 11.4561 151.036 11.5278 151.011 11.6263C150.744 12.6659 150.062 12.9392 149.328 13.114C149.202 13.1722 149.17 13.3291 149.1 13.4456C148.945 13.7144 149.051 13.8309 149.247 13.8936C149.628 14.0546 150.024 14.1495 150.424 14.1759C151.394 14.3865 152.378 14.5254 153.354 14.6912L155.16 14.9241C156.713 15.0623 158.272 15.0413 159.822 14.8614C161.034 14.6777 162.25 14.9152 163.466 14.8614C163.487 14.8614 163.511 14.8928 163.532 14.9108C163.828 15.3588 163.431 15.4036 163.304 15.6097C163.35 16.0577 163.279 16.5731 163.722 16.8151C163.873 16.9002 163.975 17.178 163.894 17.3124C163.733 17.5902 163.894 17.8142 163.894 18.0561C163.894 18.213 163.94 18.2624 164.049 18.2758C164.4 18.334 164.432 18.67 164.355 18.9837C164.317 19.0794 164.308 19.189 164.329 19.2925C164.35 19.396 164.399 19.4867 164.467 19.5483C164.583 19.6782 164.653 19.8216 164.558 20.0277C164.463 20.2338 164.615 20.3414 164.727 20.4444L164.885 20.655C164.885 20.7849 164.994 20.9104 164.924 21.0359C164.769 21.3137 164.857 21.5691 164.924 21.8425C165.099 22.5414 164.983 22.7699 164.453 23.0029C163.689 23.3012 162.908 23.52 162.117 23.6571C161.969 23.6884 161.765 23.7109 161.811 23.9394C161.857 24.1679 161.579 24.513 161.899 24.7504C161.959 24.7847 162.013 24.834 162.058 24.8954C162.103 24.9568 162.138 25.0291 162.161 25.1079C162.184 25.1868 162.195 25.2707 162.192 25.3547C162.189 25.4388 162.173 25.5212 162.145 25.5973C162.088 25.7944 162.208 26.0723 162.254 26.3142C162.359 26.9012 162.201 27.1655 161.741 27.1879C160.63 27.2462 159.552 27.4433 158.638 28.3663C158.154 28.8547 157.535 28.8369 156.966 28.9892C156.864 29.0161 156.752 28.9892 156.671 29.0967C155.285 29.3811 153.886 29.5517 152.483 29.6075C152.365 29.6134 152.247 29.6329 152.132 29.6658C151.988 29.7017 151.742 29.6658 151.752 29.8943C151.751 30.0189 151.777 30.1414 151.828 30.2477C151.879 30.3539 151.953 30.4396 152.04 30.4947C152.127 30.5292 152.205 30.5921 152.267 30.677C152.328 30.7619 152.371 30.8659 152.392 30.9786C152.437 31.234 152.606 31.2789 152.782 31.3326C153.427 31.4727 154.063 31.6779 154.682 31.9464C155.192 32.2198 155.227 32.3722 154.988 33.0174C154.954 33.1753 154.945 33.3405 154.962 33.5029C154.979 33.6653 155.021 33.8216 155.086 33.9628C155.122 34.0837 155.255 34.1735 155.262 34.29C155.315 35.1099 155.965 35.6341 155.937 36.481C155.93 36.5732 155.939 36.6662 155.966 36.7526C155.992 36.839 156.034 36.9164 156.088 36.9784C156.076 37.1698 156.1 37.3618 156.158 37.5393C156.215 37.7167 156.304 37.8744 156.418 37.9999C156.446 38.0335 156.469 38.0746 156.484 38.1201C156.499 38.1657 156.507 38.2148 156.506 38.2643C156.502 38.7153 156.534 39.1657 156.601 39.6085C156.616 39.6979 156.617 39.7903 156.603 39.8801C156.589 39.9698 156.561 40.0551 156.521 40.1306C156.48 40.2061 156.428 40.2702 156.368 40.3192C156.307 40.3681 156.239 40.4007 156.169 40.4151C155.259 40.7758 154.319 40.9969 153.368 41.0738C151.531 41.144 149.691 41.0797 147.859 40.8811C147.744 40.8811 147.624 40.8811 147.508 40.8811C147.392 40.8811 147.361 40.9169 147.375 41.0603C147.434 41.4907 147.578 41.8949 147.793 42.2351C148.008 42.5752 148.287 42.8401 148.604 43.005C148.874 43.2899 149.19 43.4962 149.528 43.6098C149.809 43.6591 149.845 43.8966 149.704 44.3939C149.588 44.5463 149.423 44.6674 149.49 44.9362L149.469 45.1154C149.333 45.4117 149.113 45.6288 148.854 45.7203C148.544 45.8482 148.246 46.0179 147.965 46.2266L147.849 46.3117C147.618 46.4318 147.42 46.636 147.28 46.8987C147.244 46.9812 147.195 47.0528 147.136 47.1087C147.077 47.1647 147.009 47.2037 146.937 47.2228C146.865 47.242 146.79 47.2409 146.718 47.2198C146.647 47.1986 146.579 47.1579 146.521 47.1003C146.154 46.8292 145.721 46.7399 145.305 46.8494C144.694 46.9524 144.072 46.93 143.457 46.9614C142.59 47.0017 141.722 47.06 140.857 47.1048C138.939 47.2034 137.021 47.2438 135.106 47.3782C134.214 47.4409 133.318 47.414 132.426 47.4633C131.372 47.5171 130.349 47.5664 129.313 47.6112C127.711 47.6829 126.105 47.7321 124.506 47.8755C123.839 47.9337 123.168 47.9472 122.497 47.9785C120.947 48.0457 119.398 48.1354 117.849 48.2205C116.05 48.3191 114.251 48.3281 112.452 48.4894C111.613 48.5611 110.769 48.5476 109.93 48.579C108.352 48.6328 106.768 48.7358 105.204 48.8255C103.774 48.9061 102.344 49.0316 100.915 49.175C99.8957 49.2735 98.8698 49.3228 97.8474 49.408C96.7583 49.5021 95.6692 49.5737 94.58 49.6812C94.046 49.735 93.505 49.7619 92.9674 49.7888C91.5902 49.8605 90.2095 49.9501 88.8322 50.0263C86.7594 50.1383 84.683 50.2458 82.6067 50.3309C80.9671 50.4026 79.3135 50.5028 77.6458 50.6312C75.9946 50.7611 74.3398 50.8372 72.6885 50.9985C71.9859 51.0702 71.2832 51.0658 70.6016 51.0882C69.5476 51.1286 68.5253 51.1823 67.4888 51.2405C65.7673 51.3301 64.0458 51.3615 62.3278 51.5049C61.5021 51.5721 60.673 51.59 59.8474 51.5945C57.9923 51.5945 56.1408 51.7111 54.2858 51.7424C52.104 51.7827 49.9222 51.832 47.744 51.9575C45.4919 52.0874 43.2469 51.8768 40.9984 51.8902C39.7503 51.9094 38.5026 51.8211 37.2638 51.6259C37.1196 51.6083 36.9772 51.5723 36.8387 51.5184C36.4521 51.3944 36.0959 51.1495 35.8022 50.8059C35.4017 50.3578 35.0152 49.7933 34.4461 49.632C34.3371 49.3553 34.1808 49.1134 33.9886 48.9241C33.7964 48.7349 33.5733 48.6031 33.3359 48.5386C33.0892 48.4946 32.857 48.3644 32.6648 48.1623C32.4666 47.9598 32.2155 47.8604 31.9622 47.8845H28.6456C28.528 47.8675 28.409 47.8858 28.298 47.9379C28.1869 47.9901 28.087 48.0746 28.0062 48.1847C27.8968 48.306 27.7669 48.3933 27.6267 48.4401H27.163C26.7668 48.3684 26.3646 48.3684 25.9684 48.4401C25.192 48.4401 24.4156 48.4401 23.6426 48.4401C22.413 48.4669 21.1833 48.6641 19.9677 48.821C19.4864 48.8837 19.0015 48.9106 18.5167 48.9464C18.3902 48.9464 18.2356 48.9777 18.1829 48.7716C18.1302 48.5655 18.2567 48.4983 18.3902 48.4311C18.5237 48.3639 18.5343 48.1847 18.3902 48.1399C17.9762 47.9832 17.6089 47.6709 17.3362 47.2437C17.0463 46.8209 16.6546 46.5325 16.2225 46.4237C16.1768 46.4237 16.1312 46.3028 16.1136 46.2311C15.9941 45.6755 15.4425 45.6172 15.302 45.075C15.302 45.0257 15.1334 45.0258 15.0455 45.0168C14.9698 45.0225 14.8946 44.9967 14.8313 44.9434C14.768 44.8901 14.7199 44.8121 14.6942 44.721C14.6051 44.369 14.4208 44.0689 14.1742 43.8742C13.8229 43.5426 13.8475 43.3365 14.1742 42.9781C14.3218 42.8123 14.3323 42.6733 14.1145 42.5927L13.5102 42.3955C13.4647 42.3823 13.422 42.3566 13.385 42.3203C13.348 42.2839 13.3176 42.2377 13.2959 42.185C13.0359 41.5756 12.5651 41.2888 12.14 40.9348C11.6967 40.5211 11.3544 39.9556 11.1528 39.3039C11.1291 39.2338 11.1256 39.1554 11.1429 39.0824C11.1603 39.0094 11.1974 38.9465 11.2476 38.905C11.3319 38.8244 11.4163 38.7079 11.5146 38.6989C12.1927 38.6586 12.5265 38.0044 12.92 37.4533C13.0458 37.2416 13.2202 37.085 13.4189 37.0052C13.5594 36.9604 13.6929 36.8843 13.6753 36.6379C13.6578 36.3914 13.5453 36.3421 13.3978 36.2839C13.3206 36.2678 13.2467 36.2328 13.18 36.1808C13.1413 36.136 13.1027 36.0553 13.0675 36.0553C12.5019 36.1002 12.0135 35.6296 11.4549 35.6744C9.45233 35.8357 7.44623 35.9881 5.44012 36.1225C4.92718 36.1539 4.42829 36.0733 3.92237 36.0867C3.51834 36.0867 3.1389 36.4003 2.72082 36.2121C2.60137 36.1583 2.46785 36.1404 2.34137 36.1001C1.86708 35.9477 1.80383 35.7776 2.09192 35.2936C2.21489 35.0786 2.1903 34.9128 2.03572 34.8456C1.74763 34.738 1.73358 34.487 1.73358 34.1868C1.73358 33.8866 1.55438 33.7836 1.49465 33.564C1.37169 32.9546 1.38225 32.9277 1.86709 32.7395C1.93384 32.7171 2.00761 32.7038 2.01464 32.6052C2.02167 32.5066 1.94086 32.4259 1.86357 32.4169C1.26279 32.3363 1.06603 31.8614 1.05549 31.1534C1.0393 30.9538 0.983715 30.7626 0.893889 30.5978C0.821607 30.4839 0.783936 30.3404 0.787808 30.194C0.79168 30.0475 0.836834 29.9077 0.914968 29.8003C0.746329 29.6658 0.563634 29.7912 0.451208 29.603Z" fill="#FF997B"/>
</svg>
