<svg width="113" height="35" viewBox="0 0 113 35" fill="none" xmlns="http://www.w3.org/2000/svg">
<path d="M0.309009 19.9251L0.205549 19.7985C0.128554 19.708 -0.0134142 19.6929 0.0010223 19.4969C0.00828667 19.4144 0.0328185 19.3359 0.0721154 19.2691C0.111412 19.2024 0.16409 19.1499 0.224802 19.1169C0.316229 19.0787 0.402295 19.0227 0.479847 18.951C0.545294 18.8792 0.621686 18.8248 0.704405 18.7911C0.787123 18.7574 0.874444 18.7451 0.961065 18.755C1.49993 18.7519 2.03819 18.7097 2.57313 18.6283C2.81374 18.5982 2.94127 18.3659 2.81374 18.1397C2.68502 17.9382 2.57823 17.7161 2.49615 17.4793C2.47209 17.3616 2.3638 17.3134 2.27237 17.2591C2.18094 17.2048 1.99567 17.2138 2.03176 17.054C2.06786 16.8941 2.0847 16.6318 2.27237 16.5715C2.44129 16.4954 2.59962 16.3865 2.74156 16.2488C2.90758 16.1975 3.0712 16.1402 3.23722 16.104C3.40324 16.0678 3.47784 15.9593 3.39844 15.7512C3.37438 15.6878 3.32866 15.6034 3.35272 15.5611C3.53799 15.2595 3.35271 15.0997 3.20594 14.9037C3.1424 14.7938 3.10038 14.6667 3.08324 14.5327C3.07512 14.4598 3.05134 14.391 3.01448 14.3336C2.97762 14.2763 2.92903 14.2325 2.8739 14.207C2.72712 14.1346 2.68623 14.0261 2.74879 13.809C2.87391 13.3747 2.85947 13.3686 2.53705 13.1243C2.49991 13.0902 2.47029 13.0448 2.45099 12.9923C2.43169 12.9399 2.42334 12.8822 2.4267 12.8246C2.43007 12.767 2.44505 12.7115 2.47025 12.6631C2.49544 12.6148 2.53002 12.5753 2.57074 12.5483C2.90759 12.3522 3.2276 12.0868 3.6222 12.0989C3.74799 12.0942 3.87382 12.1064 3.99755 12.1351C4.25225 12.2059 4.51568 12.212 4.77231 12.1532C4.90411 12.1228 5.03963 12.1289 5.16932 12.1713C5.86708 12.4216 6.57687 12.6116 7.28426 12.8107C7.48156 12.868 7.60188 12.8107 7.6091 12.5272C7.61871 12.3052 7.61871 12.0826 7.6091 11.8606C7.59925 11.8301 7.5845 11.8024 7.56577 11.7792C7.47595 11.5408 7.36969 11.3128 7.24818 11.0976C7.22653 11.0343 7.17599 11.0433 7.13509 11.0252C6.89448 10.6241 6.71402 10.1205 6.41326 9.84605C6.17824 9.66191 5.98839 9.39993 5.86468 9.08906C5.80693 8.93827 5.56631 8.91416 5.46285 8.73321C5.35939 8.55225 5.4027 8.46482 5.53503 8.38037C5.59759 8.33815 5.67459 8.28684 5.57354 8.18731C5.39067 8.03049 5.27278 7.74399 5.0033 7.74399C4.93833 7.74399 4.86855 7.63241 4.85171 7.52987C4.80599 7.22828 4.62553 7.19814 4.43785 7.16798C4.38492 7.16798 4.32959 7.26449 4.27665 7.16798C4.13842 6.9173 3.98304 6.68216 3.81228 6.46526C3.68155 6.28874 3.51533 6.15956 3.33106 6.09129C3.27091 6.0732 3.20594 6.02192 3.20835 5.93144C3.20835 5.65096 3.06399 5.51825 2.90278 5.38555C2.84171 5.34578 2.79199 5.2832 2.76052 5.20648C2.72906 5.12976 2.71739 5.04271 2.72713 4.95732C2.75359 4.78541 2.90999 4.77337 3.01345 4.7583C3.31421 4.71004 3.56445 4.6165 3.64626 4.18523C3.67513 4.03745 3.82431 4.01034 3.90612 3.9078C4.00739 3.80218 4.11997 3.71484 4.24057 3.6484C4.64497 3.49108 5.06388 3.39988 5.48692 3.377C5.88769 3.39282 6.28796 3.32969 6.67312 3.18998C6.81268 3.13871 6.8632 3.06937 6.83433 2.91858C6.79102 2.68635 6.90651 2.61696 7.04125 2.58378C7.08503 2.57378 7.12921 2.56679 7.17359 2.56272C7.45751 2.49637 7.79196 2.53251 7.80158 1.97759C7.80158 1.81473 7.97963 1.77854 8.06865 1.676C8.16898 1.56494 8.28371 1.47624 8.40791 1.41366C8.76641 1.34731 9.12974 1.27797 9.48825 1.21765C9.57833 1.21976 9.6672 1.19164 9.74569 1.13622C9.9863 1.08193 10.2269 1.04267 10.4675 1.0095C10.7181 0.995974 10.9666 0.947425 11.2086 0.864744C11.4781 0.807442 11.7524 0.783333 12.0219 0.732063C12.1999 0.635554 12.3924 0.750167 12.5705 0.665722H12.7822C13.0228 0.560166 13.2634 0.665737 13.4896 0.605419C13.5055 0.60858 13.5218 0.60858 13.5377 0.605419C13.7017 0.551326 13.8727 0.538984 14.0406 0.569193C14.39 0.575758 14.7395 0.556642 15.0872 0.511909C15.153 0.496381 15.2201 0.4913 15.2869 0.496815C15.8235 0.496815 16.36 0.52394 16.8966 0.478702C16.9126 0.481631 16.9288 0.481631 16.9447 0.478702C17.2794 0.432511 17.6165 0.419437 17.9529 0.439531C18.1216 0.451649 18.2909 0.44253 18.4582 0.412362C18.4792 0.392513 18.5041 0.380064 18.5303 0.376209C19.1487 0.376209 19.7671 0.34901 20.3878 0.318852C22.0721 0.231391 23.7419 0.159057 25.419 0.140962C26.4151 0.140962 27.4136 0.11985 28.4097 0.140962H28.7827C28.8819 0.128895 28.9818 0.128895 29.0811 0.140962C30.9049 0.165089 32.7311 0.101711 34.5573 0.0956792C34.9495 0.0956792 35.3465 0.0957116 35.7411 0.0534892C35.844 0.0364896 35.9479 0.031427 36.0515 0.0383951H39.42C39.5933 0.0383951 39.7665 0.0383951 39.9397 0.0383951C40.019 0.057277 40.0998 0.0643837 40.1803 0.0595269C42.1052 0.104765 44.0517 0.0926633 45.9886 0.0956792C46.0753 0.0956792 46.1691 0.0595239 46.2509 0.131905C46.3278 0.167418 46.4111 0.175787 46.4915 0.156056C47.2278 0.113833 47.9592 0.273669 48.6931 0.225415C48.7295 0.222572 48.7654 0.236483 48.7941 0.264586C49.374 0.32792 49.9539 0.264613 50.5337 0.291756C50.7575 0.291756 50.9813 0.291756 51.2051 0.291756C51.2568 0.287341 51.3088 0.293469 51.359 0.309869C52.2493 0.255583 53.1396 0.34003 54.0274 0.23749C54.5471 0.177173 55.0692 0.192184 55.5914 0.168057C56.7944 0.116787 57.983 0.0595534 59.1788 0.0866963C59.6601 0.0866963 60.1413 0.0595298 60.6369 0.0625457C61.6619 0.0625457 62.6893 0.0293386 63.7119 0.104736C64.6744 0.174101 65.6368 0.168107 66.5992 0.14398C68.4327 0.101758 70.2661 0.0324046 72.102 0.00526163C73.4061 -0.0158495 74.7102 0.0354205 76.0143 0.00526163C76.0499 0.00415191 76.0856 0.00916747 76.1201 0.0202821C76.4065 0.0383774 76.6928 0.074621 76.9815 0.074621C78.7933 0.074621 80.6051 0.074621 82.4145 0.074621C83.1002 0.074621 83.7835 0.0112492 84.4669 0.0353763C85.7108 0.0806145 86.9548 0.0354204 88.1963 0.0806587C88.9735 0.107802 89.753 0.156047 90.5302 0.222396C90.8421 0.216458 91.1539 0.246761 91.4614 0.312887C92.0533 0.403364 92.6427 0.508884 93.2371 0.57825C93.5474 0.61444 93.841 0.741102 94.1466 0.798403C94.2187 0.798403 94.2332 0.903968 94.2741 0.958254C94.3221 1.04049 94.3864 1.10547 94.4607 1.14675C94.5351 1.18803 94.6167 1.20418 94.6975 1.1935C94.7697 1.23271 94.8227 1.28999 94.7721 1.39554C94.7514 1.42428 94.7386 1.4606 94.7356 1.49914C94.7325 1.53768 94.7395 1.57641 94.7553 1.60966C94.8492 1.76339 94.9761 1.88056 95.121 1.94747C95.2798 2.32747 95.6696 2.44508 95.8212 2.76175C96.1412 3.42524 96.7211 3.386 97.159 3.71172C97.2528 3.78108 97.2312 3.84749 97.2408 3.91987C97.242 4.00521 97.27 4.0865 97.3186 4.14628C97.3672 4.20607 97.4326 4.23951 97.5007 4.2395C98.1236 4.34137 98.7516 4.38779 99.3798 4.37829C99.4878 4.38178 99.5956 4.36548 99.6998 4.32999C99.8701 4.22888 100.063 4.20366 100.246 4.25849C100.43 4.31333 100.592 4.44495 100.708 4.63158C100.725 4.65872 100.739 4.70396 100.756 4.70697C100.997 4.70697 101.064 4.92715 101.086 5.17747C101.192 5.29832 101.315 5.3934 101.449 5.45793C101.526 5.5665 101.646 5.62381 101.598 5.84095C101.567 5.97666 101.714 6.01893 101.805 6.04005C101.918 6.04755 102.027 6.10105 102.113 6.19246C102.2 6.28387 102.261 6.4082 102.286 6.54669C102.337 6.78495 102.551 6.77891 102.7 6.84828L102.962 7.0624C103.083 7.09177 103.205 7.11189 103.328 7.1227C103.629 7.1981 103.648 7.23128 103.545 7.65652C103.501 7.7108 103.436 7.75907 103.42 7.82542C103.237 8.52511 102.77 8.7091 102.267 8.82672C102.18 8.86592 102.159 8.97148 102.111 9.04989C102.005 9.23084 102.077 9.30926 102.212 9.35148C102.472 9.45985 102.744 9.52373 103.018 9.54144C103.682 9.68319 104.356 9.77673 105.024 9.88831L106.261 10.0451C107.325 10.1381 108.392 10.124 109.454 10.0029C110.284 9.87923 111.117 10.0391 111.949 10.0029C111.964 10.0029 111.981 10.024 111.995 10.0361C112.197 10.3377 111.925 10.3678 111.839 10.5065C111.87 10.8081 111.822 11.155 112.125 11.3178C112.228 11.3751 112.298 11.5621 112.243 11.6526C112.132 11.8395 112.243 11.9903 112.243 12.1532C112.243 12.2587 112.274 12.292 112.349 12.301C112.589 12.3402 112.611 12.5664 112.558 12.7775C112.533 12.8419 112.526 12.9157 112.54 12.9853C112.555 13.055 112.588 13.116 112.635 13.1575C112.714 13.2449 112.762 13.3415 112.698 13.4802C112.633 13.6189 112.736 13.6913 112.813 13.7607L112.921 13.9024C112.921 13.9899 112.996 14.0743 112.948 14.1588C112.842 14.3458 112.902 14.5177 112.948 14.7016C113.068 15.1721 112.989 15.3259 112.625 15.4827C112.102 15.6835 111.567 15.8308 111.025 15.923C110.924 15.9441 110.785 15.9593 110.816 16.1131C110.847 16.2669 110.657 16.4991 110.876 16.659C110.917 16.682 110.954 16.7152 110.985 16.7565C111.016 16.7978 111.04 16.8465 111.056 16.8996C111.072 16.9527 111.079 17.0091 111.077 17.0657C111.075 17.1222 111.064 17.1777 111.045 17.2289C111.006 17.3616 111.088 17.5486 111.119 17.7115C111.191 18.1066 111.083 18.2845 110.768 18.2996C110.008 18.3388 109.269 18.4714 108.643 19.0927C108.311 19.4214 107.888 19.4094 107.498 19.512C107.428 19.5301 107.351 19.512 107.296 19.5843C106.347 19.7758 105.389 19.8906 104.428 19.9281C104.347 19.9321 104.266 19.9452 104.187 19.9674C104.089 19.9915 103.92 19.9674 103.927 20.1212C103.926 20.205 103.944 20.2875 103.979 20.359C104.014 20.4305 104.065 20.4882 104.125 20.5253C104.184 20.5485 104.237 20.5909 104.28 20.648C104.322 20.7051 104.351 20.7751 104.365 20.851C104.396 21.0229 104.512 21.0531 104.632 21.0893C105.074 21.1835 105.51 21.3217 105.934 21.5024C106.283 21.6864 106.307 21.789 106.143 22.2232C106.12 22.3296 106.114 22.4407 106.125 22.55C106.137 22.6593 106.166 22.7645 106.211 22.8596C106.235 22.941 106.326 23.0014 106.331 23.0798C106.367 23.6317 106.812 23.9845 106.793 24.5545C106.788 24.6166 106.795 24.6792 106.813 24.7373C106.831 24.7955 106.859 24.8476 106.896 24.8893C106.889 25.0181 106.905 25.1474 106.944 25.2668C106.984 25.3862 107.045 25.4924 107.123 25.5769C107.142 25.5995 107.158 25.6271 107.168 25.6578C107.178 25.6885 107.183 25.7215 107.183 25.7548C107.18 26.0584 107.202 26.3615 107.248 26.6596C107.258 26.7197 107.259 26.7819 107.249 26.8423C107.24 26.9028 107.221 26.9601 107.193 27.011C107.165 27.0618 107.13 27.105 107.088 27.1379C107.047 27.1708 107 27.1928 106.952 27.2025C106.329 27.4453 105.685 27.5941 105.034 27.6458C103.776 27.6931 102.516 27.6498 101.261 27.5161C101.182 27.5161 101.1 27.5161 101.021 27.5161C100.941 27.5161 100.92 27.5402 100.929 27.6367C100.97 27.9264 101.068 28.1985 101.216 28.4274C101.363 28.6564 101.554 28.8347 101.771 28.9457C101.956 29.1374 102.172 29.2763 102.404 29.3528C102.597 29.3859 102.621 29.5458 102.525 29.8805C102.445 29.9831 102.332 30.0646 102.378 30.2455L102.363 30.3661C102.271 30.5655 102.12 30.7117 101.942 30.7733C101.73 30.8594 101.526 30.9736 101.334 31.1141L101.254 31.1713C101.096 31.2522 100.96 31.3896 100.864 31.5664C100.84 31.6219 100.807 31.6701 100.766 31.7078C100.725 31.7455 100.679 31.7717 100.629 31.7846C100.58 31.7975 100.529 31.7968 100.48 31.7825C100.431 31.7683 100.385 31.7409 100.345 31.7021C100.093 31.5197 99.7968 31.4595 99.5121 31.5332C99.0935 31.6026 98.6676 31.5875 98.2465 31.6086C97.6522 31.6358 97.0579 31.675 96.466 31.7052C95.1523 31.7715 93.8386 31.7987 92.5273 31.8892C91.9161 31.9314 91.3026 31.9133 90.6914 31.9464C89.9696 31.9826 89.2694 32.0158 88.5596 32.046C87.4625 32.0942 86.3628 32.1274 85.2681 32.2239C84.8109 32.2631 84.3514 32.2721 83.8918 32.2932C82.8307 32.3385 81.7696 32.3988 80.7085 32.4561C79.4766 32.5225 78.2447 32.5285 77.0128 32.6371C76.4377 32.6853 75.8603 32.6763 75.2852 32.6974C74.2049 32.7336 73.1197 32.803 72.049 32.8633C71.0697 32.9176 70.0905 33.002 69.1112 33.0985C68.4134 33.1649 67.7108 33.1981 67.0107 33.2554C66.2648 33.3187 65.5189 33.3669 64.773 33.4393C64.4073 33.4755 64.0367 33.4936 63.6686 33.5117C62.7254 33.5599 61.7798 33.6202 60.8366 33.6715C59.417 33.7469 57.995 33.8193 56.573 33.8766C55.4502 33.9248 54.3177 33.9922 53.1756 34.0787C52.0448 34.1662 50.9115 34.2174 49.7806 34.3259C49.2994 34.3742 48.8182 34.3712 48.3514 34.3863C47.6296 34.4135 46.9294 34.4496 46.2196 34.4888C45.0406 34.5491 43.8617 34.5703 42.6851 34.6668C42.1197 34.712 41.5518 34.7241 40.9864 34.7271C39.716 34.7271 38.448 34.8055 37.1775 34.8266C35.6834 34.8538 34.1892 34.8869 32.6974 34.9714C31.1551 35.0588 29.6176 34.9171 28.0777 34.9261C27.2229 34.939 26.3684 34.8796 25.52 34.7482C25.4213 34.7363 25.3238 34.7121 25.2289 34.6758C24.9642 34.5924 24.7203 34.4275 24.5191 34.1963C24.2448 33.8947 23.9801 33.5147 23.5903 33.4062C23.5157 33.2199 23.4086 33.0571 23.277 32.9297C23.1454 32.8023 22.9926 32.7136 22.83 32.6702C22.6611 32.6406 22.5021 32.5529 22.3705 32.4169C22.2347 32.2806 22.0627 32.2138 21.8892 32.2299H19.6179C19.5374 32.2185 19.4559 32.2308 19.3798 32.2659C19.3038 32.301 19.2354 32.3579 19.18 32.432C19.1051 32.5136 19.0161 32.5724 18.9201 32.6039H18.6025C18.3312 32.5556 18.0558 32.5556 17.7845 32.6039C17.2527 32.6039 16.721 32.6039 16.1916 32.6039C15.3495 32.622 14.5073 32.7547 13.6748 32.8603C13.3452 32.9025 13.0132 32.9206 12.6811 32.9447C12.5945 32.9447 12.4886 32.9658 12.4525 32.8271C12.4165 32.6883 12.5031 32.6431 12.5945 32.5978C12.6859 32.5526 12.6932 32.432 12.5945 32.4018C12.311 32.2964 12.0594 32.0862 11.8727 31.7987C11.6741 31.5141 11.4059 31.32 11.11 31.2467C11.0787 31.2467 11.0474 31.1653 11.0354 31.1171C10.9536 30.7431 10.5758 30.7039 10.4796 30.339C10.4796 30.3058 10.3641 30.3058 10.3039 30.2998C10.252 30.3036 10.2006 30.2863 10.1572 30.2504C10.1138 30.2145 10.0809 30.162 10.0633 30.1007C10.0023 29.8638 9.87608 29.6618 9.7072 29.5307C9.46659 29.3075 9.48343 29.1688 9.7072 28.9275C9.80826 28.816 9.81548 28.7224 9.6663 28.6681L9.25245 28.5355C9.22126 28.5265 9.192 28.5093 9.16667 28.4848C9.14133 28.4603 9.12052 28.4292 9.10568 28.3937C8.92763 27.9836 8.60522 27.7905 8.31408 27.5523C8.01044 27.2738 7.77601 26.8932 7.63797 26.4545C7.62173 26.4074 7.61933 26.3546 7.63123 26.3054C7.64312 26.2563 7.66852 26.214 7.70292 26.1861C7.76067 26.1318 7.81842 26.0534 7.88579 26.0474C8.35016 26.0202 8.57874 25.5799 8.84822 25.2089C8.93442 25.0664 9.05381 24.9611 9.18989 24.9073C9.28613 24.8772 9.37757 24.826 9.36554 24.6601C9.35351 24.4942 9.2765 24.461 9.17545 24.4218C9.12261 24.411 9.07195 24.3875 9.02627 24.3525C8.99981 24.3223 8.97334 24.268 8.94928 24.268C8.5619 24.2982 8.22746 23.9815 7.84489 24.0116C6.47342 24.1202 5.09954 24.2228 3.72566 24.3132C3.37437 24.3343 3.03271 24.2801 2.68623 24.2892C2.40953 24.2892 2.14967 24.5002 1.86335 24.3735C1.78154 24.3373 1.69011 24.3253 1.60349 24.2981C1.27866 24.1956 1.23535 24.0811 1.43265 23.7553C1.51686 23.6106 1.50003 23.499 1.39416 23.4537C1.19686 23.3814 1.18724 23.2124 1.18724 23.0103C1.18724 22.8083 1.06451 22.739 1.02361 22.5912C0.939398 22.181 0.94663 22.1629 1.27867 22.0362C1.32439 22.0211 1.37491 22.0122 1.37972 21.9458C1.38453 21.8795 1.3292 21.8251 1.27626 21.8191C0.864821 21.7648 0.730068 21.4452 0.72285 20.9687C0.711766 20.8343 0.673696 20.7056 0.612179 20.5947C0.562677 20.518 0.536878 20.4215 0.539529 20.3229C0.542181 20.2243 0.573104 20.1302 0.626615 20.0579C0.511122 19.9674 0.386004 20.0518 0.309009 19.9251Z" fill="#FF997B"/>
</svg>
